<svg xmlns="http://www.w3.org/2000/svg" width="1000" height="420" viewBox="0 0 1000 420">
  <rect width="100%" height="100%" fill="#ffffff" />
  <text x="64" y="20" font-size="16" fill="#2e3440">CDR phase error demo</text>
  <line x1="64" y1="57.2" x2="976" y2="57.2" stroke="#d8dee9" stroke-width="1" /><text x="12" y="61.2" font-size="13" fill="#4c566a">+0.5 UI</text><line x1="64" y1="203.0" x2="976" y2="203.0" stroke="#d8dee9" stroke-width="1" /><text x="12" y="207.0" font-size="13" fill="#4c566a">0</text><line x1="64" y1="348.8" x2="976" y2="348.8" stroke="#d8dee9" stroke-width="1" /><text x="12" y="352.8" font-size="13" fill="#4c566a">-0.5 UI</text>
  <line x1="64" y1="28" x2="64" y2="378" stroke="#4c566a" />
  <line x1="64" y1="378" x2="976" y2="378" stroke="#4c566a" />
  <polyline fill="none" stroke="#bf616a" stroke-width="1.8" points="64.0,124.5 64.7,133.4 65.5,137.1 66.2,142.2 66.9,150.0 67.7,158.5 68.4,160.8 69.1,168.9 69.8,170.1 70.6,175.8 71.3,182.7 72.0,178.9 72.8,190.5 73.5,200.5 74.2,210.1 75.0,209.8 75.7,220.6 76.4,221.1 77.1,233.1 77.9,232.3 78.6,238.5 79.3,243.8 80.1,248.2 80.8,252.8 81.5,261.0 82.3,260.3 83.0,272.0 83.7,283.3 84.4,277.6 85.2,290.3 85.9,291.2 86.6,296.8 87.4,293.9 88.1,310.1 88.8,311.5 89.6,319.3 90.3,329.2 91.0,330.6 91.7,333.8 92.5,334.8 93.2,342.3 93.9,345.2 94.7,358.0 95.4,358.4 96.1,360.7 96.9,370.9 97.6,372.0 98.3,378.0 99.0,378.0 99.8,378.0 100.5,378.0 101.2,378.0 102.0,378.0 102.7,378.0 103.4,378.0 104.2,378.0 104.9,378.0 105.6,378.0 106.4,378.0 107.1,378.0 107.8,378.0 108.5,378.0 109.3,378.0 110.0,378.0 110.7,378.0 111.5,378.0 112.2,378.0 112.9,378.0 113.7,378.0 114.4,378.0 115.1,378.0 115.8,378.0 116.6,378.0 117.3,378.0 118.0,378.0 118.8,378.0 119.5,378.0 120.2,378.0 121.0,378.0 121.7,378.0 122.4,378.0 123.1,378.0 123.9,378.0 124.6,378.0 125.3,378.0 126.1,378.0 126.8,378.0 127.5,378.0 128.3,378.0 129.0,378.0 129.7,378.0 130.4,378.0 131.2,378.0 131.9,378.0 132.6,378.0 133.4,378.0 134.1,378.0 134.8,378.0 135.6,378.0 136.3,378.0 137.0,378.0 137.7,378.0 138.5,378.0 139.2,378.0 139.9,378.0 140.7,378.0 141.4,378.0 142.1,378.0 142.9,378.0 143.6,378.0 144.3,378.0 145.1,378.0 145.8,378.0 146.5,378.0 147.2,378.0 148.0,378.0 148.7,378.0 149.4,378.0 150.2,378.0 150.9,378.0 151.6,378.0 152.4,378.0 153.1,378.0 153.8,378.0 154.5,378.0 155.3,378.0 156.0,378.0 156.7,378.0 157.5,378.0 158.2,378.0 158.9,378.0 159.7,378.0 160.4,378.0 161.1,378.0 161.8,378.0 162.6,378.0 163.3,378.0 164.0,378.0 164.8,378.0 165.5,378.0 166.2,378.0 167.0,378.0 167.7,378.0 168.4,378.0 169.1,378.0 169.9,378.0 170.6,378.0 171.3,378.0 172.1,378.0 172.8,378.0 173.5,378.0 174.3,378.0 175.0,378.0 175.7,378.0 176.4,378.0 177.2,378.0 177.9,378.0 178.6,378.0 179.4,378.0 180.1,378.0 180.8,378.0 181.6,378.0 182.3,378.0 183.0,378.0 183.8,378.0 184.5,378.0 185.2,378.0 185.9,378.0 186.7,378.0 187.4,378.0 188.1,378.0 188.9,378.0 189.6,378.0 190.3,378.0 191.1,378.0 191.8,378.0 192.5,378.0 193.2,378.0 194.0,378.0 194.7,378.0 195.4,378.0 196.2,378.0 196.9,378.0 197.6,378.0 198.4,378.0 199.1,378.0 199.8,378.0 200.5,378.0 201.3,378.0 202.0,378.0 202.7,378.0 203.5,378.0 204.2,378.0 204.9,378.0 205.7,378.0 206.4,378.0 207.1,378.0 207.8,378.0 208.6,378.0 209.3,378.0 210.0,378.0 210.8,378.0 211.5,378.0 212.2,378.0 213.0,378.0 213.7,378.0 214.4,378.0 215.1,378.0 215.9,378.0 216.6,378.0 217.3,378.0 218.1,378.0 218.8,378.0 219.5,378.0 220.3,378.0 221.0,378.0 221.7,378.0 222.4,378.0 223.2,378.0 223.9,378.0 224.6,378.0 225.4,378.0 226.1,378.0 226.8,378.0 227.6,378.0 228.3,378.0 229.0,378.0 229.8,378.0 230.5,378.0 231.2,378.0 231.9,378.0 232.7,378.0 233.4,378.0 234.1,378.0 234.9,378.0 235.6,378.0 236.3,378.0 237.1,378.0 237.8,378.0 238.5,378.0 239.2,378.0 240.0,378.0 240.7,378.0 241.4,378.0 242.2,378.0 242.9,378.0 243.6,378.0 244.4,378.0 245.1,378.0 245.8,378.0 246.5,378.0 247.3,378.0 248.0,378.0 248.7,378.0 249.5,378.0 250.2,378.0 250.9,378.0 251.7,378.0 252.4,378.0 253.1,378.0 253.8,378.0 254.6,378.0 255.3,378.0 256.0,378.0 256.8,378.0 257.5,378.0 258.2,378.0 259.0,378.0 259.7,378.0 260.4,378.0 261.1,378.0 261.9,378.0 262.6,378.0 263.3,378.0 264.1,378.0 264.8,378.0 265.5,378.0 266.3,378.0 267.0,378.0 267.7,378.0 268.5,378.0 269.2,378.0 269.9,378.0 270.6,378.0 271.4,378.0 272.1,378.0 272.8,378.0 273.6,378.0 274.3,378.0 275.0,378.0 275.8,378.0 276.5,378.0 277.2,378.0 277.9,378.0 278.7,378.0 279.4,378.0 280.1,378.0 280.9,378.0 281.6,378.0 282.3,378.0 283.1,378.0 283.8,378.0 284.5,378.0 285.2,378.0 286.0,378.0 286.7,378.0 287.4,378.0 288.2,378.0 288.9,378.0 289.6,378.0 290.4,378.0 291.1,378.0 291.8,378.0 292.5,378.0 293.3,378.0 294.0,378.0 294.7,378.0 295.5,378.0 296.2,378.0 296.9,378.0 297.7,378.0 298.4,378.0 299.1,378.0 299.8,378.0 300.6,378.0 301.3,378.0 302.0,378.0 302.8,378.0 303.5,378.0 304.2,378.0 305.0,378.0 305.7,378.0 306.4,378.0 307.2,378.0 307.9,378.0 308.6,378.0 309.3,378.0 310.1,378.0 310.8,378.0 311.5,378.0 312.3,378.0 313.0,378.0 313.7,378.0 314.5,378.0 315.2,378.0 315.9,378.0 316.6,378.0 317.4,378.0 318.1,378.0 318.8,378.0 319.6,378.0 320.3,378.0 321.0,378.0 321.8,378.0 322.5,378.0 323.2,378.0 323.9,378.0 324.7,378.0 325.4,378.0 326.1,378.0 326.9,378.0 327.6,378.0 328.3,378.0 329.1,378.0 329.8,378.0 330.5,378.0 331.2,378.0 332.0,378.0 332.7,378.0 333.4,378.0 334.2,378.0 334.9,378.0 335.6,378.0 336.4,378.0 337.1,378.0 337.8,378.0 338.5,378.0 339.3,378.0 340.0,378.0 340.7,378.0 341.5,378.0 342.2,378.0 342.9,378.0 343.7,378.0 344.4,378.0 345.1,378.0 345.9,378.0 346.6,378.0 347.3,378.0 348.0,378.0 348.8,378.0 349.5,378.0 350.2,378.0 351.0,378.0 351.7,378.0 352.4,378.0 353.2,378.0 353.9,378.0 354.6,378.0 355.3,378.0 356.1,378.0 356.8,378.0 357.5,378.0 358.3,378.0 359.0,378.0 359.7,378.0 360.5,378.0 361.2,378.0 361.9,378.0 362.6,378.0 363.4,378.0 364.1,378.0 364.8,378.0 365.6,378.0 366.3,378.0 367.0,378.0 367.8,378.0 368.5,378.0 369.2,378.0 369.9,378.0 370.7,378.0 371.4,378.0 372.1,378.0 372.9,378.0 373.6,378.0 374.3,378.0 375.1,378.0 375.8,378.0 376.5,378.0 377.2,378.0 378.0,378.0 378.7,378.0 379.4,378.0 380.2,378.0 380.9,378.0 381.6,378.0 382.4,378.0 383.1,378.0 383.8,378.0 384.6,378.0 385.3,378.0 386.0,378.0 386.7,378.0 387.5,378.0 388.2,378.0 388.9,378.0 389.7,378.0 390.4,378.0 391.1,378.0 391.9,378.0 392.6,378.0 393.3,378.0 394.0,378.0 394.8,378.0 395.5,378.0 396.2,378.0 397.0,378.0 397.7,378.0 398.4,378.0 399.2,378.0 399.9,378.0 400.6,378.0 401.3,378.0 402.1,378.0 402.8,378.0 403.5,378.0 404.3,378.0 405.0,378.0 405.7,378.0 406.5,378.0 407.2,378.0 407.9,378.0 408.6,378.0 409.4,378.0 410.1,378.0 410.8,378.0 411.6,378.0 412.3,378.0 413.0,378.0 413.8,378.0 414.5,378.0 415.2,378.0 415.9,378.0 416.7,378.0 417.4,378.0 418.1,378.0 418.9,378.0 419.6,378.0 420.3,378.0 421.1,378.0 421.8,378.0 422.5,378.0 423.3,378.0 424.0,378.0 424.7,378.0 425.4,378.0 426.2,378.0 426.9,378.0 427.6,378.0 428.4,378.0 429.1,378.0 429.8,378.0 430.6,378.0 431.3,378.0 432.0,378.0 432.7,378.0 433.5,378.0 434.2,378.0 434.9,378.0 435.7,378.0 436.4,378.0 437.1,378.0 437.9,378.0 438.6,378.0 439.3,378.0 440.0,378.0 440.8,378.0 441.5,378.0 442.2,378.0 443.0,378.0 443.7,378.0 444.4,378.0 445.2,378.0 445.9,378.0 446.6,378.0 447.3,378.0 448.1,378.0 448.8,378.0 449.5,378.0 450.3,378.0 451.0,378.0 451.7,378.0 452.5,378.0 453.2,378.0 453.9,378.0 454.6,378.0 455.4,378.0 456.1,378.0 456.8,378.0 457.6,378.0 458.3,378.0 459.0,378.0 459.8,378.0 460.5,378.0 461.2,378.0 462.0,378.0 462.7,378.0 463.4,378.0 464.1,378.0 464.9,378.0 465.6,378.0 466.3,378.0 467.1,378.0 467.8,378.0 468.5,378.0 469.3,378.0 470.0,378.0 470.7,378.0 471.4,378.0 472.2,378.0 472.9,378.0 473.6,378.0 474.4,378.0 475.1,378.0 475.8,378.0 476.6,378.0 477.3,378.0 478.0,378.0 478.7,378.0 479.5,378.0 480.2,378.0 480.9,378.0 481.7,378.0 482.4,378.0 483.1,378.0 483.9,378.0 484.6,378.0 485.3,378.0 486.0,378.0 486.8,378.0 487.5,378.0 488.2,378.0 489.0,378.0 489.7,378.0 490.4,378.0 491.2,378.0 491.9,378.0 492.6,378.0 493.3,378.0 494.1,378.0 494.8,378.0 495.5,378.0 496.3,378.0 497.0,378.0 497.7,378.0 498.5,378.0 499.2,378.0 499.9,378.0 500.7,378.0 501.4,378.0 502.1,378.0 502.8,378.0 503.6,378.0 504.3,378.0 505.0,378.0 505.8,378.0 506.5,378.0 507.2,378.0 508.0,378.0 508.7,378.0 509.4,378.0 510.1,378.0 510.9,378.0 511.6,378.0 512.3,378.0 513.1,378.0 513.8,378.0 514.5,378.0 515.3,378.0 516.0,378.0 516.7,378.0 517.4,378.0 518.2,378.0 518.9,378.0 519.6,378.0 520.4,378.0 521.1,378.0 521.8,378.0 522.6,378.0 523.3,378.0 524.0,378.0 524.7,378.0 525.5,378.0 526.2,378.0 526.9,378.0 527.7,378.0 528.4,378.0 529.1,378.0 529.9,378.0 530.6,378.0 531.3,378.0 532.0,378.0 532.8,378.0 533.5,378.0 534.2,378.0 535.0,378.0 535.7,378.0 536.4,378.0 537.2,378.0 537.9,378.0 538.6,378.0 539.3,378.0 540.1,378.0 540.8,378.0 541.5,378.0 542.3,378.0 543.0,378.0 543.7,378.0 544.5,378.0 545.2,378.0 545.9,378.0 546.7,378.0 547.4,378.0 548.1,378.0 548.8,378.0 549.6,378.0 550.3,378.0 551.0,378.0 551.8,378.0 552.5,378.0 553.2,378.0 554.0,378.0 554.7,378.0 555.4,378.0 556.1,378.0 556.9,378.0 557.6,378.0 558.3,378.0 559.1,378.0 559.8,378.0 560.5,378.0 561.3,378.0 562.0,378.0 562.7,378.0 563.4,378.0 564.2,378.0 564.9,378.0 565.6,378.0 566.4,378.0 567.1,378.0 567.8,378.0 568.6,378.0 569.3,378.0 570.0,378.0 570.7,378.0 571.5,378.0 572.2,378.0 572.9,378.0 573.7,378.0 574.4,378.0 575.1,378.0 575.9,378.0 576.6,378.0 577.3,378.0 578.0,378.0 578.8,378.0 579.5,378.0 580.2,378.0 581.0,378.0 581.7,378.0 582.4,378.0 583.2,378.0 583.9,378.0 584.6,378.0 585.4,378.0 586.1,378.0 586.8,378.0 587.5,378.0 588.3,378.0 589.0,378.0 589.7,378.0 590.5,378.0 591.2,378.0 591.9,378.0 592.7,378.0 593.4,378.0 594.1,378.0 594.8,378.0 595.6,378.0 596.3,378.0 597.0,378.0 597.8,378.0 598.5,378.0 599.2,378.0 600.0,378.0 600.7,378.0 601.4,378.0 602.1,378.0 602.9,378.0 603.6,378.0 604.3,378.0 605.1,378.0 605.8,378.0 606.5,378.0 607.3,378.0 608.0,378.0 608.7,378.0 609.4,378.0 610.2,378.0 610.9,378.0 611.6,378.0 612.4,378.0 613.1,378.0 613.8,378.0 614.6,378.0 615.3,378.0 616.0,378.0 616.7,378.0 617.5,378.0 618.2,378.0 618.9,378.0 619.7,378.0 620.4,378.0 621.1,378.0 621.9,378.0 622.6,378.0 623.3,378.0 624.1,378.0 624.8,378.0 625.5,378.0 626.2,378.0 627.0,378.0 627.7,378.0 628.4,378.0 629.2,378.0 629.9,378.0 630.6,378.0 631.4,378.0 632.1,378.0 632.8,378.0 633.5,378.0 634.3,378.0 635.0,378.0 635.7,378.0 636.5,378.0 637.2,378.0 637.9,378.0 638.7,378.0 639.4,378.0 640.1,378.0 640.8,378.0 641.6,378.0 642.3,378.0 643.0,378.0 643.8,378.0 644.5,378.0 645.2,378.0 646.0,378.0 646.7,378.0 647.4,378.0 648.1,378.0 648.9,378.0 649.6,378.0 650.3,378.0 651.1,378.0 651.8,378.0 652.5,378.0 653.3,378.0 654.0,378.0 654.7,378.0 655.4,378.0 656.2,378.0 656.9,378.0 657.6,378.0 658.4,378.0 659.1,378.0 659.8,378.0 660.6,378.0 661.3,378.0 662.0,378.0 662.8,378.0 663.5,378.0 664.2,378.0 664.9,378.0 665.7,378.0 666.4,378.0 667.1,378.0 667.9,378.0 668.6,378.0 669.3,378.0 670.1,378.0 670.8,378.0 671.5,378.0 672.2,378.0 673.0,378.0 673.7,378.0 674.4,378.0 675.2,378.0 675.9,378.0 676.6,378.0 677.4,378.0 678.1,378.0 678.8,378.0 679.5,378.0 680.3,378.0 681.0,378.0 681.7,378.0 682.5,378.0 683.2,378.0 683.9,378.0 684.7,378.0 685.4,378.0 686.1,378.0 686.8,378.0 687.6,378.0 688.3,378.0 689.0,378.0 689.8,378.0 690.5,378.0 691.2,378.0 692.0,378.0 692.7,378.0 693.4,378.0 694.1,378.0 694.9,378.0 695.6,378.0 696.3,378.0 697.1,378.0 697.8,378.0 698.5,378.0 699.3,378.0 700.0,378.0 700.7,378.0 701.5,378.0 702.2,378.0 702.9,378.0 703.6,378.0 704.4,378.0 705.1,378.0 705.8,378.0 706.6,378.0 707.3,378.0 708.0,378.0 708.8,378.0 709.5,378.0 710.2,378.0 710.9,378.0 711.7,378.0 712.4,378.0 713.1,378.0 713.9,378.0 714.6,378.0 715.3,378.0 716.1,378.0 716.8,378.0 717.5,378.0 718.2,378.0 719.0,378.0 719.7,378.0 720.4,378.0 721.2,378.0 721.9,378.0 722.6,378.0 723.4,378.0 724.1,378.0 724.8,378.0 725.5,378.0 726.3,378.0 727.0,378.0 727.7,378.0 728.5,378.0 729.2,378.0 729.9,378.0 730.7,378.0 731.4,378.0 732.1,378.0 732.8,378.0 733.6,378.0 734.3,378.0 735.0,378.0 735.8,378.0 736.5,378.0 737.2,378.0 738.0,378.0 738.7,378.0 739.4,378.0 740.2,378.0 740.9,378.0 741.6,378.0 742.3,378.0 743.1,378.0 743.8,378.0 744.5,378.0 745.3,378.0 746.0,378.0 746.7,378.0 747.5,378.0 748.2,378.0 748.9,378.0 749.6,378.0 750.4,378.0 751.1,378.0 751.8,378.0 752.6,378.0 753.3,378.0 754.0,378.0 754.8,378.0 755.5,378.0 756.2,378.0 756.9,378.0 757.7,378.0 758.4,378.0 759.1,378.0 759.9,378.0 760.6,378.0 761.3,378.0 762.1,378.0 762.8,378.0 763.5,378.0 764.2,378.0 765.0,378.0 765.7,378.0 766.4,378.0 767.2,378.0 767.9,378.0 768.6,378.0 769.4,378.0 770.1,378.0 770.8,378.0 771.5,378.0 772.3,378.0 773.0,378.0 773.7,378.0 774.5,378.0 775.2,378.0 775.9,378.0 776.7,378.0 777.4,378.0 778.1,378.0 778.9,378.0 779.6,378.0 780.3,378.0 781.0,378.0 781.8,378.0 782.5,378.0 783.2,378.0 784.0,378.0 784.7,378.0 785.4,378.0 786.2,378.0 786.9,378.0 787.6,378.0 788.3,378.0 789.1,378.0 789.8,378.0 790.5,378.0 791.3,378.0 792.0,378.0 792.7,378.0 793.5,378.0 794.2,378.0 794.9,378.0 795.6,378.0 796.4,378.0 797.1,378.0 797.8,378.0 798.6,378.0 799.3,378.0 800.0,378.0 800.8,378.0 801.5,378.0 802.2,378.0 802.9,378.0 803.7,378.0 804.4,378.0 805.1,378.0 805.9,378.0 806.6,378.0 807.3,378.0 808.1,378.0 808.8,378.0 809.5,378.0 810.2,378.0 811.0,378.0 811.7,378.0 812.4,378.0 813.2,378.0 813.9,378.0 814.6,378.0 815.4,378.0 816.1,378.0 816.8,378.0 817.6,378.0 818.3,378.0 819.0,378.0 819.7,378.0 820.5,378.0 821.2,378.0 821.9,378.0 822.7,378.0 823.4,378.0 824.1,378.0 824.9,378.0 825.6,378.0 826.3,378.0 827.0,378.0 827.8,378.0 828.5,378.0 829.2,378.0 830.0,378.0 830.7,378.0 831.4,378.0 832.2,378.0 832.9,378.0 833.6,378.0 834.3,378.0 835.1,378.0 835.8,378.0 836.5,378.0 837.3,378.0 838.0,378.0 838.7,378.0 839.5,378.0 840.2,378.0 840.9,378.0 841.6,378.0 842.4,378.0 843.1,378.0 843.8,378.0 844.6,378.0 845.3,378.0 846.0,378.0 846.8,378.0 847.5,378.0 848.2,378.0 848.9,378.0 849.7,378.0 850.4,378.0 851.1,378.0 851.9,378.0 852.6,378.0 853.3,378.0 854.1,378.0 854.8,378.0 855.5,378.0 856.2,378.0 857.0,378.0 857.7,378.0 858.4,378.0 859.2,378.0 859.9,378.0 860.6,378.0 861.4,378.0 862.1,378.0 862.8,378.0 863.6,378.0 864.3,378.0 865.0,378.0 865.7,378.0 866.5,378.0 867.2,378.0 867.9,378.0 868.7,378.0 869.4,378.0 870.1,378.0 870.9,378.0 871.6,378.0 872.3,378.0 873.0,378.0 873.8,378.0 874.5,378.0 875.2,378.0 876.0,378.0 876.7,378.0 877.4,378.0 878.2,378.0 878.9,378.0 879.6,378.0 880.3,378.0 881.1,378.0 881.8,378.0 882.5,378.0 883.3,378.0 884.0,378.0 884.7,378.0 885.5,378.0 886.2,378.0 886.9,378.0 887.6,378.0 888.4,378.0 889.1,378.0 889.8,378.0 890.6,378.0 891.3,378.0 892.0,378.0 892.8,378.0 893.5,378.0 894.2,378.0 894.9,378.0 895.7,378.0 896.4,378.0 897.1,378.0 897.9,378.0 898.6,378.0 899.3,378.0 900.1,378.0 900.8,378.0 901.5,378.0 902.3,378.0 903.0,378.0 903.7,378.0 904.4,378.0 905.2,378.0 905.9,378.0 906.6,378.0 907.4,378.0 908.1,378.0 908.8,378.0 909.6,378.0 910.3,378.0 911.0,378.0 911.7,378.0 912.5,378.0 913.2,378.0 913.9,378.0 914.7,378.0 915.4,378.0 916.1,378.0 916.9,378.0 917.6,378.0 918.3,378.0 919.0,378.0 919.8,378.0 920.5,378.0 921.2,378.0 922.0,378.0 922.7,378.0 923.4,378.0 924.2,378.0 924.9,378.0 925.6,378.0 926.3,378.0 927.1,378.0 927.8,378.0 928.5,378.0 929.3,378.0 930.0,378.0 930.7,378.0 931.5,378.0 932.2,378.0 932.9,378.0 933.6,378.0 934.4,378.0 935.1,378.0 935.8,378.0 936.6,378.0 937.3,378.0 938.0,378.0 938.8,378.0 939.5,378.0 940.2,378.0 941.0,378.0 941.7,378.0 942.4,378.0 943.1,378.0 943.9,378.0 944.6,378.0 945.3,378.0 946.1,378.0 946.8,378.0 947.5,378.0 948.3,378.0 949.0,378.0 949.7,378.0 950.4,378.0 951.2,378.0 951.9,378.0 952.6,378.0 953.4,378.0 954.1,378.0 954.8,378.0 955.6,378.0 956.3,378.0 957.0,378.0 957.7,378.0 958.5,378.0 959.2,378.0 959.9,378.0 960.7,378.0 961.4,378.0 962.1,378.0 962.9,378.0 963.6,378.0 964.3,378.0 965.0,378.0 965.8,378.0 966.5,378.0 967.2,378.0 968.0,378.0 968.7,378.0 969.4,378.0 970.2,378.0 970.9,378.0 971.6,378.0 972.3,378.0 973.1,378.0 973.8,378.0 974.5,378.0 975.3,378.0 976.0,378.0" />
  <polyline fill="none" stroke="#2b8a3e" stroke-width="1.8" points="64.0,124.5 64.7,164.7 65.5,169.4 66.2,175.4 66.9,184.9 67.7,193.0 68.4,163.3 69.1,203.6 69.8,204.6 70.6,211.0 71.3,219.6 72.0,182.8 72.8,226.9 73.5,236.8 74.2,214.9 75.0,181.5 75.7,193.1 76.4,191.0 77.1,204.5 77.9,201.7 78.6,177.5 79.3,179.6 80.1,186.6 80.8,191.3 81.5,228.3 82.3,227.5 83.0,203.4 83.7,212.2 84.4,179.8 85.2,157.5 85.9,156.8 86.6,159.8 87.4,194.4 88.1,170.8 88.8,172.9 89.6,176.7 90.3,211.9 91.0,182.0 91.7,159.9 92.5,188.4 93.2,195.7 93.9,158.6 94.7,201.6 95.4,174.8 96.1,172.5 96.9,211.9 97.6,183.2 98.3,222.2 99.0,186.0 99.8,226.2 100.5,225.7 101.2,159.2 102.0,170.1 102.7,170.4 103.4,200.9 104.2,207.9 104.9,211.4 105.6,208.2 106.4,219.9 107.1,185.3 107.8,217.6 108.5,186.1 109.3,226.1 110.0,194.2 110.7,203.6 111.5,199.5 112.2,197.9 112.9,167.8 113.7,176.1 114.4,210.1 115.1,173.8 115.8,177.1 116.6,177.0 117.3,175.6 118.0,180.8 118.8,187.3 119.5,192.5 120.2,155.3 121.0,157.2 121.7,188.4 122.4,157.8 123.1,163.5 123.9,197.3 124.6,198.0 125.3,160.4 126.1,198.2 126.8,199.4 127.5,203.0 128.3,176.7 129.0,174.5 129.7,198.9 130.4,210.6 131.2,201.6 131.9,209.4 132.6,210.1 133.4,176.0 134.1,223.5 134.8,181.7 135.6,189.8 136.3,185.5 137.0,189.4 137.7,164.4 138.5,163.9 139.2,195.5 139.9,193.8 140.7,194.8 141.4,190.1 142.1,230.7 142.9,200.6 143.6,196.5 144.3,203.1 145.1,179.8 145.8,203.3 146.5,175.4 147.2,176.3 148.0,178.2 148.7,216.0 149.4,220.5 150.2,183.1 150.9,189.1 151.6,185.0 152.4,157.4 153.1,193.5 153.8,160.0 154.5,158.4 155.3,164.1 156.0,160.7 156.7,200.2 157.5,170.8 158.2,193.2 158.9,202.9 159.7,198.1 160.4,205.7 161.1,202.3 161.8,209.3 162.6,174.0 163.3,215.2 164.0,216.7 164.8,180.5 165.5,149.9 166.2,152.0 167.0,191.2 167.7,224.0 168.4,189.7 169.1,163.6 169.9,163.4 170.6,168.3 171.3,164.5 172.1,196.2 172.8,170.0 173.5,203.4 174.3,166.9 175.0,173.5 175.7,207.8 176.4,210.0 177.2,198.8 177.9,180.3 178.6,209.5 179.4,185.3 180.1,215.7 180.8,217.2 181.6,189.1 182.3,217.7 183.0,157.3 183.8,214.9 184.5,221.6 185.2,151.5 185.9,160.4 186.7,191.5 187.4,196.7 188.1,169.8 188.9,198.0 189.6,167.2 190.3,171.1 191.1,164.8 191.8,166.1 192.5,206.0 193.2,208.0 194.0,174.1 194.7,170.2 195.4,205.6 196.2,208.4 196.9,208.5 197.6,202.4 198.4,209.5 199.1,179.6 199.8,209.2 200.5,209.7 201.3,207.5 202.0,207.4 202.7,209.8 203.5,178.9 204.2,175.9 204.9,212.7 205.7,174.9 206.4,181.5 207.1,207.9 207.8,216.2 208.6,150.0 209.3,148.4 210.0,185.1 210.8,182.4 211.5,217.9 212.2,155.3 213.0,181.7 213.7,217.6 214.4,218.5 215.1,176.9 215.9,217.3 216.6,215.3 217.3,186.8 218.1,180.6 218.8,181.7 219.5,218.1 220.3,190.0 221.0,188.4 221.7,183.1 222.4,154.5 223.2,181.7 223.9,183.8 224.6,152.3 225.4,184.1 226.1,182.7 226.8,142.7 227.6,156.1 228.3,183.0 229.0,153.5 229.8,143.8 230.5,204.3 231.2,178.9 231.9,203.6 232.7,182.0 233.4,172.1 234.1,168.9 234.9,214.1 235.6,146.2 236.3,141.1 237.1,135.0 237.8,141.3 238.5,214.6 239.2,177.2 240.0,145.6 240.7,172.9 241.4,201.1 242.2,204.3 242.9,195.9 243.6,170.6 244.4,175.9 245.1,201.3 245.8,168.6 246.5,169.6 247.3,177.6 248.0,204.5 248.7,206.3 249.5,174.0 250.2,175.5 250.9,208.1 251.7,200.9 252.4,171.6 253.1,203.4 253.8,179.4 254.6,169.2 255.3,172.1 256.0,203.6 256.8,206.9 257.5,202.3 258.2,171.5 259.0,166.1 259.7,168.2 260.4,194.5 261.1,205.0 261.9,173.5 262.6,203.1 263.3,143.1 264.1,205.9 264.8,174.9 265.5,198.9 266.3,211.4 267.0,176.9 267.7,178.7 268.5,175.0 269.2,178.1 269.9,207.8 270.6,206.9 271.4,184.8 272.1,151.2 272.8,146.3 273.6,170.0 274.3,217.7 275.0,179.6 275.8,180.1 276.5,180.6 277.2,181.9 277.9,213.7 278.7,159.9 279.4,193.0 280.1,185.3 280.9,185.7 281.6,159.4 282.3,158.1 283.1,155.6 283.8,190.0 284.5,198.5 285.2,159.2 286.0,156.3 286.7,193.7 287.4,194.8 288.2,194.8 288.9,199.3 289.6,200.6 290.4,195.9 291.1,166.1 291.8,168.3 292.5,195.9 293.3,196.5 294.0,199.7 294.7,166.2 295.5,168.5 296.2,171.6 296.9,171.5 297.7,176.7 298.4,207.0 299.1,170.4 299.8,206.8 300.6,173.9 301.3,200.1 302.0,179.7 302.8,206.2 303.5,177.4 304.2,176.6 305.0,175.0 305.7,209.3 306.4,210.1 307.2,180.1 307.9,180.3 308.6,149.2 309.3,180.5 310.1,148.4 310.8,143.7 311.5,176.2 312.3,179.4 313.0,183.0 313.7,177.6 314.5,177.7 315.2,175.8 315.9,209.4 316.6,206.0 317.4,173.2 318.1,179.3 318.8,174.6 319.6,207.8 320.3,181.9 321.0,152.6 321.8,147.6 322.5,173.6 323.2,182.2 323.9,173.0 324.7,214.5 325.4,176.3 326.1,213.7 326.9,175.9 327.6,177.9 328.3,216.8 329.1,209.2 329.8,208.3 330.5,206.8 331.2,172.3 332.0,209.2 332.7,171.9 333.4,171.9 334.2,173.5 334.9,200.9 335.6,201.2 336.4,167.7 337.1,168.7 337.8,203.2 338.5,171.8 339.3,197.7 340.0,165.2 340.7,172.2 341.5,170.6 342.2,162.3 342.9,193.7 343.7,163.4 344.4,167.1 345.1,162.1 345.9,194.6 346.6,191.9 347.3,194.9 348.0,191.0 348.8,154.6 349.5,161.5 350.2,157.9 351.0,191.1 351.7,159.4 352.4,183.5 353.2,188.3 353.9,163.3 354.6,153.4 355.3,192.4 356.1,192.7 356.8,188.1 357.5,183.4 358.3,184.1 359.0,186.2 359.7,185.1 360.5,144.6 361.2,217.0 361.9,185.6 362.6,189.0 363.4,156.3 364.1,180.9 364.8,182.5 365.6,216.2 366.3,222.2 367.0,186.3 367.8,187.1 368.5,181.5 369.2,218.0 369.9,150.4 370.7,180.5 371.4,154.4 372.1,190.0 372.9,184.0 373.6,217.8 374.3,144.5 375.1,188.0 375.8,152.0 376.5,187.0 377.2,190.4 378.0,224.2 378.7,155.6 379.4,153.2 380.2,181.5 380.9,215.4 381.6,224.5 382.4,194.1 383.1,161.9 383.8,190.3 384.6,187.8 385.3,199.1 386.0,162.8 386.7,158.0 387.5,161.3 388.2,159.4 388.9,221.2 389.7,165.3 390.4,198.4 391.1,160.4 391.9,198.3 392.6,165.1 393.3,201.4 394.0,191.2 394.8,170.5 395.5,162.6 396.2,161.2 397.0,172.1 397.7,201.9 398.4,202.7 399.2,166.4 399.9,201.1 400.6,167.1 401.3,196.0 402.1,169.5 402.8,207.0 403.5,172.5 404.3,199.0 405.0,204.3 405.7,204.6 406.5,174.7 407.2,209.0 407.9,176.0 408.6,181.6 409.4,175.2 410.1,178.4 410.8,212.8 411.6,213.4 412.3,217.2 413.0,210.0 413.8,209.3 414.5,177.8 415.2,187.2 415.9,146.5 416.7,188.1 417.4,183.2 418.1,185.5 418.9,214.2 419.6,214.3 420.3,184.8 421.1,181.9 421.8,213.0 422.5,215.9 423.3,185.0 424.0,154.2 424.7,185.8 425.4,188.3 426.2,159.3 426.9,155.1 427.6,183.6 428.4,211.3 429.1,146.5 429.8,184.8 430.6,147.7 431.3,220.0 432.0,184.1 432.7,144.4 433.5,216.5 434.2,181.2 434.9,186.3 435.7,184.4 436.4,147.8 437.1,210.4 437.9,215.0 438.6,214.9 439.3,211.2 440.0,217.2 440.8,210.7 441.5,174.8 442.2,219.0 443.0,186.6 443.7,151.1 444.4,213.6 445.2,186.1 445.9,170.9 446.6,209.7 447.3,179.4 448.1,178.3 448.8,175.3 449.5,207.8 450.3,183.9 451.0,172.5 451.7,176.7 452.5,177.6 453.2,204.2 453.9,173.5 454.6,170.5 455.4,207.7 456.1,198.5 456.8,202.2 457.6,197.5 458.3,164.9 459.0,167.7 459.8,200.4 460.5,172.4 461.2,193.5 462.0,195.0 462.7,197.4 463.4,195.7 464.1,164.6 464.9,198.7 465.6,199.5 466.3,193.1 467.1,193.6 467.8,158.1 468.5,190.7 469.3,189.2 470.0,161.6 470.7,188.3 471.4,191.3 472.2,152.4 472.9,159.4 473.6,182.9 474.4,187.0 475.1,161.1 475.8,188.0 476.6,218.9 477.3,221.1 478.0,190.7 478.7,159.2 479.5,223.4 480.2,189.4 480.9,158.5 481.7,190.9 482.4,156.4 483.1,156.0 483.9,194.5 484.6,153.7 485.3,180.3 486.0,187.9 486.8,150.7 487.5,182.1 488.2,152.0 489.0,157.9 489.7,152.6 490.4,183.8 491.2,218.9 491.9,219.3 492.6,221.1 493.3,223.2 494.1,161.9 494.8,153.0 495.5,220.6 496.3,162.3 497.0,149.5 497.7,186.4 498.5,157.3 499.2,161.7 499.9,162.8 500.7,159.1 501.4,169.3 502.1,190.9 502.8,187.0 503.6,199.0 504.3,167.4 505.0,160.8 505.8,192.3 506.5,165.8 507.2,202.3 508.0,194.6 508.7,172.8 509.4,196.9 510.1,167.9 510.9,196.0 511.6,194.4 512.3,208.4 513.1,166.0 513.8,172.6 514.5,165.4 515.3,174.4 516.0,174.7 516.7,163.2 517.4,171.9 518.2,173.2 518.9,173.7 519.6,178.9 520.4,211.3 521.1,180.3 521.8,171.8 522.6,183.2 523.3,180.8 524.0,207.6 524.7,181.4 525.5,185.7 526.2,218.3 526.9,211.8 527.7,186.9 528.4,152.6 529.1,181.8 529.9,143.9 530.6,146.5 531.3,210.4 532.0,220.2 532.8,153.7 533.5,184.1 534.2,183.8 535.0,182.4 535.7,181.8 536.4,147.3 537.2,184.5 537.9,151.9 538.6,157.5 539.3,148.9 540.1,156.7 540.8,217.4 541.5,177.9 542.3,185.9 543.0,185.7 543.7,177.1 544.5,217.2 545.2,221.1 545.9,178.0 546.7,185.4 547.4,188.0 548.1,151.3 548.8,183.4 549.6,183.5 550.3,178.9 551.0,214.9 551.8,187.3 552.5,145.3 553.2,213.8 554.0,207.5 554.7,181.0 555.4,207.0 556.1,181.2 556.9,217.4 557.6,169.1 558.3,212.1 559.1,173.7 559.8,206.0 560.5,208.7 561.3,180.0 562.0,174.8 562.7,171.0 563.4,205.1 564.2,205.9 564.9,175.7 565.6,164.3 566.4,169.1 567.1,205.5 567.8,170.2 568.6,206.9 569.3,203.8 570.0,167.3 570.7,194.3 571.5,167.2 572.2,197.9 572.9,164.9 573.7,159.3 574.4,200.9 575.1,192.5 575.9,236.2 576.6,162.3 577.3,172.7 578.0,197.6 578.8,190.1 579.5,187.5 580.2,194.4 581.0,196.2 581.7,160.7 582.4,198.0 583.2,164.0 583.9,191.6 584.6,190.2 585.4,189.9 586.1,187.4 586.8,191.4 587.5,226.3 588.3,192.8 589.0,194.5 589.7,187.5 590.5,192.3 591.2,213.2 591.9,215.9 592.7,181.5 593.4,188.9 594.1,153.1 594.8,187.3 595.6,186.4 596.3,150.7 597.0,154.2 597.8,151.6 598.5,154.1 599.2,188.5 600.0,186.7 600.7,146.9 601.4,186.0 602.1,187.0 602.9,185.3 603.6,145.2 604.3,219.2 605.1,189.5 605.8,183.5 606.5,185.8 607.3,188.7 608.0,181.5 608.7,184.9 609.4,226.0 610.2,191.2 610.9,185.2 611.6,160.0 612.4,169.7 613.1,191.4 613.8,164.3 614.6,163.2 615.3,198.3 616.0,164.9 616.7,163.9 617.5,192.1 618.2,194.1 618.9,168.0 619.7,167.0 620.4,198.1 621.1,169.6 621.9,194.1 622.6,164.4 623.3,207.4 624.1,203.1 624.8,202.0 625.5,171.0 626.2,198.5 627.0,196.5 627.7,203.0 628.4,196.4 629.2,241.2 629.9,211.5 630.6,178.0 631.4,199.3 632.1,213.2 632.8,172.5 633.5,173.3 634.3,181.6 635.0,183.8 635.7,150.6 636.5,182.0 637.2,207.3 637.9,207.8 638.7,182.8 639.4,215.5 640.1,215.6 640.8,220.8 641.6,220.9 642.3,158.6 643.0,155.2 643.8,156.2 644.5,181.6 645.2,184.4 646.0,153.8 646.7,217.9 647.4,185.4 648.1,185.0 648.9,216.2 649.6,221.3 650.3,187.6 651.1,182.6 651.8,185.4 652.5,189.5 653.3,157.0 654.0,182.7 654.7,188.5 655.4,159.0 656.2,196.1 656.9,187.3 657.6,192.8 658.4,188.6 659.1,184.6 659.8,222.0 660.6,219.7 661.3,183.8 662.0,187.7 662.8,153.5 663.5,179.9 664.2,183.8 664.9,176.4 665.7,184.1 666.4,182.4 667.1,180.2 667.9,183.7 668.6,180.1 669.3,184.3 670.1,181.9 670.8,212.2 671.5,180.6 672.2,213.9 673.0,207.7 673.7,176.3 674.4,177.2 675.2,178.2 675.9,146.1 676.6,174.3 677.4,177.1 678.1,140.8 678.8,138.5 679.5,170.4 680.3,207.5 681.0,202.3 681.7,204.5 682.5,201.9 683.2,196.6 683.9,171.1 684.7,163.4 685.4,202.5 686.1,161.3 686.8,204.7 687.6,166.7 688.3,196.5 689.0,196.8 689.8,200.1 690.5,163.2 691.2,195.7 692.0,161.7 692.7,199.4 693.4,153.3 694.1,192.2 694.9,232.9 695.6,164.2 696.3,185.8 697.1,185.1 697.8,189.1 698.5,157.8 699.3,160.8 700.0,198.1 700.7,191.6 701.5,160.3 702.2,159.3 702.9,163.7 703.6,191.5 704.4,191.0 705.1,151.1 705.8,158.0 706.6,196.6 707.3,188.9 708.0,151.8 708.8,186.5 709.5,188.2 710.2,150.6 710.9,154.7 711.7,178.4 712.4,187.3 713.1,187.5 713.9,193.4 714.6,187.0 715.3,188.6 716.1,156.7 716.8,154.9 717.5,151.2 718.2,182.3 719.0,189.9 719.7,182.4 720.4,217.4 721.2,189.7 721.9,163.6 722.6,155.1 723.4,154.4 724.1,161.1 724.8,154.5 725.5,195.9 726.3,154.5 727.0,151.9 727.7,194.5 728.5,153.7 729.2,190.0 729.9,162.3 730.7,196.5 731.4,195.0 732.1,193.3 732.8,195.7 733.6,193.2 734.3,190.6 735.0,200.1 735.8,168.7 736.5,200.2 737.2,167.1 738.0,171.7 738.7,202.0 739.4,201.4 740.2,200.5 740.9,169.5 741.6,200.6 742.3,173.6 743.1,166.3 743.8,167.4 744.5,163.7 745.3,180.0 746.0,176.3 746.7,172.6 747.5,207.1 748.2,174.4 748.9,180.2 749.6,207.7 750.4,179.0 751.1,216.7 751.8,148.9 752.6,152.9 753.3,180.4 754.0,188.9 754.8,148.9 755.5,151.1 756.2,151.1 756.9,147.6 757.7,182.0 758.4,150.5 759.1,142.9 759.9,185.7 760.6,178.2 761.3,211.9 762.1,182.9 762.8,183.7 763.5,178.2 764.2,212.1 765.0,211.7 765.7,219.7 766.4,188.3 767.2,178.9 767.9,184.1 768.6,177.8 769.4,217.4 770.1,181.2 770.8,179.9 771.5,185.6 772.3,178.1 773.0,187.0 773.7,152.9 774.5,143.2 775.2,172.9 775.9,215.6 776.7,145.2 777.4,182.6 778.1,174.0 778.9,203.3 779.6,209.5 780.3,181.5 781.0,149.6 781.8,210.7 782.5,175.8 783.2,178.3 784.0,207.4 784.7,180.4 785.4,173.1 786.2,170.4 786.9,172.8 787.6,209.2 788.3,171.8 789.1,169.7 789.8,205.4 790.5,131.9 791.3,202.6 792.0,204.8 792.7,167.3 793.5,198.1 794.2,200.6 794.9,204.7 795.6,170.9 796.4,195.0 797.1,170.6 797.8,161.1 798.6,199.7 799.3,172.2 800.0,197.5 800.8,192.9 801.5,195.0 802.2,197.7 802.9,191.8 803.7,198.3 804.4,159.4 805.1,161.7 805.9,159.0 806.6,163.1 807.3,155.5 808.1,153.7 808.8,185.2 809.5,153.9 810.2,152.7 811.0,195.1 811.7,160.4 812.4,154.8 813.2,188.2 813.9,218.8 814.6,217.2 815.4,191.2 816.1,217.8 816.8,215.2 817.6,184.4 818.3,223.0 819.0,178.1 819.7,187.2 820.5,183.7 821.2,156.4 821.9,185.7 822.7,185.5 823.4,223.7 824.1,185.4 824.9,186.0 825.6,192.7 826.3,179.9 827.0,181.0 827.8,218.2 828.5,183.8 829.2,154.2 830.0,184.9 830.7,186.2 831.4,219.9 832.2,188.7 832.9,191.2 833.6,151.7 834.3,229.4 835.1,219.2 835.8,193.6 836.5,153.8 837.3,195.5 838.0,162.5 838.7,161.6 839.5,192.3 840.2,163.4 840.9,192.7 841.6,193.4 842.4,225.2 843.1,167.8 843.8,197.4 844.6,198.3 845.3,232.1 846.0,197.7 846.8,193.2 847.5,197.5 848.2,199.7 848.9,199.9 849.7,203.5 850.4,173.7 851.1,212.9 851.9,209.8 852.6,204.1 853.3,142.6 854.1,170.1 854.8,205.7 855.5,181.6 856.2,175.2 857.0,175.9 857.7,177.2 858.4,203.5 859.2,214.3 859.9,213.8 860.6,217.5 861.4,178.8 862.1,224.0 862.8,186.3 863.6,182.3 864.3,218.1 865.0,179.3 865.7,217.6 866.5,219.2 867.2,213.3 867.9,188.2 868.7,151.1 869.4,185.9 870.1,181.5 870.9,218.7 871.6,223.0 872.3,157.5 873.0,188.8 873.8,191.9 874.5,184.2 875.2,192.0 876.0,188.0 876.7,213.9 877.4,162.8 878.2,184.1 878.9,184.3 879.6,194.3 880.3,157.3 881.1,190.6 881.8,190.3 882.5,185.7 883.3,192.9 884.0,175.6 884.7,221.4 885.5,222.4 886.2,192.4 886.9,185.0 887.6,222.6 888.4,190.3 889.1,158.3 889.8,191.2 890.6,183.8 891.3,212.3 892.0,184.9 892.8,151.5 893.5,154.2 894.2,174.8 894.9,183.5 895.7,182.5 896.4,146.4 897.1,157.2 897.9,148.2 898.6,144.1 899.3,180.4 900.1,178.9 900.8,209.0 901.5,204.9 902.3,168.8 903.0,180.0 903.7,207.2 904.4,170.2 905.2,208.5 905.9,203.1 906.6,207.6 907.4,206.6 908.1,175.2 908.8,201.7 909.6,173.8 910.3,172.7 911.0,204.5 911.7,168.6 912.5,170.1 913.2,166.6 913.9,169.1 914.7,169.8 915.4,164.3 916.1,169.2 916.9,203.1 917.6,166.2 918.3,202.5 919.0,198.4 919.8,165.5 920.5,189.9 921.2,161.5 922.0,218.1 922.7,201.8 923.4,160.8 924.2,153.5 924.9,160.2 925.6,190.8 926.3,149.6 927.1,191.6 927.8,190.9 928.5,152.0 929.3,191.4 930.0,161.8 930.7,178.4 931.5,220.1 932.2,187.5 932.9,222.5 933.6,229.9 934.4,186.9 935.1,191.1 935.8,159.5 936.6,160.3 937.3,187.7 938.0,186.8 938.8,185.4 939.5,189.2 940.2,222.3 941.0,192.9 941.7,191.1 942.4,160.5 943.1,159.6 943.9,195.0 944.6,187.8 945.3,195.3 946.1,190.0 946.8,154.0 947.5,190.2 948.3,195.6 949.0,156.8 949.7,224.2 950.4,227.9 951.2,223.9 951.9,232.0 952.6,167.4 953.4,199.8 954.1,204.0 954.8,195.5 955.6,198.5 956.3,200.8 957.0,173.5 957.7,160.7 958.5,164.7 959.2,201.3 959.9,167.8 960.7,202.8 961.4,169.2 962.1,200.5 962.9,199.3 963.6,176.2 964.3,170.3 965.0,202.4 965.8,175.8 966.5,177.9 967.2,174.5 968.0,205.6 968.7,174.2 969.4,207.4 970.2,208.7 970.9,176.6 971.6,210.1 972.3,182.2 973.1,178.3 973.8,209.2 974.5,186.6 975.3,152.3 976.0,188.6" />
  <text x="64" y="406" font-size="13" fill="#4c566a">bit index</text>
  <rect x="790" y="18" width="12" height="12" fill="#bf616a" />
  <text x="810" y="29" font-size="13" fill="#2e3440">fixed clock</text>
  <rect x="890" y="18" width="12" height="12" fill="#2b8a3e" />
  <text x="910" y="29" font-size="13" fill="#2e3440">CDR</text>
</svg>
